ply
format ascii 1.0
comment : MagicaVoxel @ Ephtracy
element vertex 216
property float x
property float y
property float z
property uchar red
property uchar green
property uchar blue
element face 54
property list uchar int vertex_index
end_header
-0.2 -0.2 0 0 0 255
-0.2 -0.2 0.1 0 0 255
-0.2 -0.1 0.1 0 0 255
-0.2 -0.1 0 0 0 255
-0.2 -0.1 0 153 204 255
-0.2 -0.1 0.1 153 204 255
-0.2 0 0.1 153 204 255
-0.2 0 0 153 204 255
-0.2 0 0 153 204 255
-0.2 0 0.1 153 204 255
-0.2 0.1 0.1 153 204 255
-0.2 0.1 0 153 204 255
-0.2 -0.2 0.1 153 204 255
-0.2 -0.2 0.2 153 204 255
-0.2 -0.1 0.2 153 204 255
-0.2 -0.1 0.1 153 204 255
-0.2 -0.1 0.1 153 204 255
-0.2 -0.1 0.2 153 204 255
-0.2 0 0.2 153 204 255
-0.2 0 0.1 153 204 255
-0.2 0 0.1 153 204 255
-0.2 0 0.2 153 204 255
-0.2 0.1 0.2 153 204 255
-0.2 0.1 0.1 153 204 255
-0.2 -0.2 0.2 0 238 0
-0.2 -0.2 0.3 0 238 0
-0.2 -0.1 0.3 0 238 0
-0.2 -0.1 0.2 0 238 0
-0.2 -0.1 0.2 153 204 255
-0.2 -0.1 0.3 153 204 255
-0.2 0 0.3 153 204 255
-0.2 0 0.2 153 204 255
-0.2 0 0.2 153 204 255
-0.2 0 0.3 153 204 255
-0.2 0.1 0.3 153 204 255
-0.2 0.1 0.2 153 204 255
0.1 -0.2 0 255 0 204
0.1 -0.1 0 255 0 204
0.1 -0.1 0.1 255 0 204
0.1 -0.2 0.1 255 0 204
0.1 -0.1 0 153 204 255
0.1 0 0 153 204 255
0.1 0 0.1 153 204 255
0.1 -0.1 0.1 153 204 255
0.1 0 0 153 204 255
0.1 0.1 0 153 204 255
0.1 0.1 0.1 153 204 255
0.1 0 0.1 153 204 255
0.1 -0.2 0.1 153 204 255
0.1 -0.1 0.1 153 204 255
0.1 -0.1 0.2 153 204 255
0.1 -0.2 0.2 153 204 255
0.1 -0.1 0.1 153 204 255
0.1 0 0.1 153 204 255
0.1 0 0.2 153 204 255
0.1 -0.1 0.2 153 204 255
0.1 0 0.1 153 204 255
0.1 0.1 0.1 153 204 255
0.1 0.1 0.2 153 204 255
0.1 0 0.2 153 204 255
0.1 -0.2 0.2 238 0 0
0.1 -0.1 0.2 238 0 0
0.1 -0.1 0.3 238 0 0
0.1 -0.2 0.3 238 0 0
0.1 -0.1 0.2 153 204 255
0.1 0 0.2 153 204 255
0.1 0 0.3 153 204 255
0.1 -0.1 0.3 153 204 255
0.1 0 0.2 153 204 255
0.1 0.1 0.2 153 204 255
0.1 0.1 0.3 153 204 255
0.1 0 0.3 153 204 255
-0.2 -0.2 0 0 0 255
-0.1 -0.2 0 0 0 255
-0.1 -0.2 0.1 0 0 255
-0.2 -0.2 0.1 0 0 255
-0.1 -0.2 0 153 204 255
0 -0.2 0 153 204 255
0 -0.2 0.1 153 204 255
-0.1 -0.2 0.1 153 204 255
0 -0.2 0 255 0 204
0.1 -0.2 0 255 0 204
0.1 -0.2 0.1 255 0 204
0 -0.2 0.1 255 0 204
-0.2 -0.2 0.1 153 204 255
-0.1 -0.2 0.1 153 204 255
-0.1 -0.2 0.2 153 204 255
-0.2 -0.2 0.2 153 204 255
-0.1 -0.2 0.1 153 204 255
0 -0.2 0.1 153 204 255
0 -0.2 0.2 153 204 255
-0.1 -0.2 0.2 153 204 255
0 -0.2 0.1 153 204 255
0.1 -0.2 0.1 153 204 255
0.1 -0.2 0.2 153 204 255
0 -0.2 0.2 153 204 255
-0.2 -0.2 0.2 0 238 0
-0.1 -0.2 0.2 0 238 0
-0.1 -0.2 0.3 0 238 0
-0.2 -0.2 0.3 0 238 0
-0.1 -0.2 0.2 153 204 255
0 -0.2 0.2 153 204 255
0 -0.2 0.3 153 204 255
-0.1 -0.2 0.3 153 204 255
0 -0.2 0.2 238 0 0
0.1 -0.2 0.2 238 0 0
0.1 -0.2 0.3 238 0 0
0 -0.2 0.3 238 0 0
-0.2 0.1 0 153 204 255
-0.2 0.1 0.1 153 204 255
-0.1 0.1 0.1 153 204 255
-0.1 0.1 0 153 204 255
-0.1 0.1 0 153 204 255
-0.1 0.1 0.1 153 204 255
0 0.1 0.1 153 204 255
0 0.1 0 153 204 255
0 0.1 0 153 204 255
0 0.1 0.1 153 204 255
0.1 0.1 0.1 153 204 255
0.1 0.1 0 153 204 255
-0.2 0.1 0.1 153 204 255
-0.2 0.1 0.2 153 204 255
-0.1 0.1 0.2 153 204 255
-0.1 0.1 0.1 153 204 255
-0.1 0.1 0.1 153 204 255
-0.1 0.1 0.2 153 204 255
0 0.1 0.2 153 204 255
0 0.1 0.1 153 204 255
0 0.1 0.1 153 204 255
0 0.1 0.2 153 204 255
0.1 0.1 0.2 153 204 255
0.1 0.1 0.1 153 204 255
-0.2 0.1 0.2 153 204 255
-0.2 0.1 0.3 153 204 255
-0.1 0.1 0.3 153 204 255
-0.1 0.1 0.2 153 204 255
-0.1 0.1 0.2 153 204 255
-0.1 0.1 0.3 153 204 255
0 0.1 0.3 153 204 255
0 0.1 0.2 153 204 255
0 0.1 0.2 153 204 255
0 0.1 0.3 153 204 255
0.1 0.1 0.3 153 204 255
0.1 0.1 0.2 153 204 255
-0.2 -0.2 0 0 0 255
-0.2 -0.1 0 0 0 255
-0.1 -0.1 0 0 0 255
-0.1 -0.2 0 0 0 255
-0.1 -0.2 0 153 204 255
-0.1 -0.1 0 153 204 255
0 -0.1 0 153 204 255
0 -0.2 0 153 204 255
0 -0.2 0 255 0 204
0 -0.1 0 255 0 204
0.1 -0.1 0 255 0 204
0.1 -0.2 0 255 0 204
-0.2 -0.1 0 153 204 255
-0.2 0 0 153 204 255
-0.1 0 0 153 204 255
-0.1 -0.1 0 153 204 255
-0.1 -0.1 0 153 204 255
-0.1 0 0 153 204 255
0 0 0 153 204 255
0 -0.1 0 153 204 255
0 -0.1 0 153 204 255
0 0 0 153 204 255
0.1 0 0 153 204 255
0.1 -0.1 0 153 204 255
-0.2 0 0 153 204 255
-0.2 0.1 0 153 204 255
-0.1 0.1 0 153 204 255
-0.1 0 0 153 204 255
-0.1 0 0 153 204 255
-0.1 0.1 0 153 204 255
0 0.1 0 153 204 255
0 0 0 153 204 255
0 0 0 153 204 255
0 0.1 0 153 204 255
0.1 0.1 0 153 204 255
0.1 0 0 153 204 255
-0.2 -0.2 0.3 0 238 0
-0.1 -0.2 0.3 0 238 0
-0.1 -0.1 0.3 0 238 0
-0.2 -0.1 0.3 0 238 0
-0.1 -0.2 0.3 153 204 255
0 -0.2 0.3 153 204 255
0 -0.1 0.3 153 204 255
-0.1 -0.1 0.3 153 204 255
0 -0.2 0.3 238 0 0
0.1 -0.2 0.3 238 0 0
0.1 -0.1 0.3 238 0 0
0 -0.1 0.3 238 0 0
-0.2 -0.1 0.3 153 204 255
-0.1 -0.1 0.3 153 204 255
-0.1 0 0.3 153 204 255
-0.2 0 0.3 153 204 255
-0.1 -0.1 0.3 153 204 255
0 -0.1 0.3 153 204 255
0 0 0.3 153 204 255
-0.1 0 0.3 153 204 255
0 -0.1 0.3 153 204 255
0.1 -0.1 0.3 153 204 255
0.1 0 0.3 153 204 255
0 0 0.3 153 204 255
-0.2 0 0.3 153 204 255
-0.1 0 0.3 153 204 255
-0.1 0.1 0.3 153 204 255
-0.2 0.1 0.3 153 204 255
-0.1 0 0.3 153 204 255
0 0 0.3 153 204 255
0 0.1 0.3 153 204 255
-0.1 0.1 0.3 153 204 255
0 0 0.3 153 204 255
0.1 0 0.3 153 204 255
0.1 0.1 0.3 153 204 255
0 0.1 0.3 153 204 255
4 0 1 2 3
4 4 5 6 7
4 8 9 10 11
4 12 13 14 15
4 16 17 18 19
4 20 21 22 23
4 24 25 26 27
4 28 29 30 31
4 32 33 34 35
4 36 37 38 39
4 40 41 42 43
4 44 45 46 47
4 48 49 50 51
4 52 53 54 55
4 56 57 58 59
4 60 61 62 63
4 64 65 66 67
4 68 69 70 71
4 72 73 74 75
4 76 77 78 79
4 80 81 82 83
4 84 85 86 87
4 88 89 90 91
4 92 93 94 95
4 96 97 98 99
4 100 101 102 103
4 104 105 106 107
4 108 109 110 111
4 112 113 114 115
4 116 117 118 119
4 120 121 122 123
4 124 125 126 127
4 128 129 130 131
4 132 133 134 135
4 136 137 138 139
4 140 141 142 143
4 144 145 146 147
4 148 149 150 151
4 152 153 154 155
4 156 157 158 159
4 160 161 162 163
4 164 165 166 167
4 168 169 170 171
4 172 173 174 175
4 176 177 178 179
4 180 181 182 183
4 184 185 186 187
4 188 189 190 191
4 192 193 194 195
4 196 197 198 199
4 200 201 202 203
4 204 205 206 207
4 208 209 210 211
4 212 213 214 215
