ply
format ascii 1.0
comment : Scratch_cat_20x20-3
comment : MagicaVoxel @ Ephtracy
element vertex 2016
property float x
property float y
property float z
property uchar red
property uchar green
property uchar blue
element face 504
property list uchar int vertex_index
end_header
2 -5 9 255 165 0
2 -5 10 255 165 0
2 -4 10 255 165 0
2 -4 9 255 165 0
2 -6 9 255 165 0
2 -6 10 255 165 0
2 -5 10 255 165 0
2 -5 9 255 165 0
-1 -5 8 255 165 0
-1 -5 9 255 165 0
-1 -4 9 255 165 0
-1 -4 8 255 165 0
-1 -6 8 255 165 0
-1 -6 9 255 165 0
-1 -5 9 255 165 0
-1 -5 8 255 165 0
-1 -5 7 255 165 0
-1 -5 8 255 165 0
-1 -4 8 255 165 0
-1 -4 7 255 165 0
-1 -6 7 255 165 0
-1 -6 8 255 165 0
-1 -5 8 255 165 0
-1 -5 7 255 165 0
-6 5 9 255 165 0
-6 5 10 255 165 0
-6 6 10 255 165 0
-6 6 9 255 165 0
6 5 14 0 0 0
6 5 15 0 0 0
6 6 15 0 0 0
6 6 14 0 0 0
-6 4 7 255 165 0
-6 4 8 255 165 0
-6 5 8 255 165 0
-6 5 7 255 165 0
-6 5 7 255 165 0
-6 5 8 255 165 0
-6 6 8 255 165 0
-6 6 7 255 165 0
-6 4 8 255 165 0
-6 4 9 255 165 0
-6 5 9 255 165 0
-6 5 8 255 165 0
-10 -1 9 255 165 0
-10 -1 10 255 165 0
-10 0 10 255 165 0
-10 0 9 255 165 0
-10 -2 9 255 165 0
-10 -2 10 255 165 0
-10 -1 10 255 165 0
-10 -1 9 255 165 0
-10 -1 8 255 165 0
-10 -1 9 255 165 0
-10 0 9 255 165 0
-10 0 8 255 165 0
-10 -2 8 255 165 0
-10 -2 9 255 165 0
-10 -1 9 255 165 0
-10 -1 8 255 165 0
-10 -1 7 255 165 0
-10 -1 8 255 165 0
-10 0 8 255 165 0
-10 0 7 255 165 0
-10 -2 7 255 165 0
-10 -2 8 255 165 0
-10 -1 8 255 165 0
-10 -1 7 255 165 0
-6 4 9 255 165 0
-6 4 10 255 165 0
-6 5 10 255 165 0
-6 5 9 255 165 0
-6 5 8 255 165 0
-6 5 9 255 165 0
-6 6 9 255 165 0
-6 6 8 255 165 0
1 1 0 255 165 0
1 1 1 255 165 0
1 2 1 255 165 0
1 2 0 255 165 0
1 2 0 255 165 0
1 2 1 255 165 0
1 3 1 255 165 0
1 3 0 255 165 0
1 3 0 255 165 0
1 3 1 255 165 0
1 4 1 255 165 0
1 4 0 255 165 0
0 1 1 255 165 0
0 1 2 255 165 0
0 2 2 255 165 0
0 2 1 255 165 0
0 2 1 255 165 0
0 2 2 255 165 0
0 3 2 255 165 0
0 3 1 255 165 0
0 3 1 255 165 0
0 3 2 255 165 0
0 4 2 255 165 0
0 4 1 255 165 0
-3 3 3 255 165 0
-3 3 4 255 165 0
-3 4 4 255 165 0
-3 4 3 255 165 0
-3 2 3 255 165 0
-3 2 4 255 165 0
-3 3 4 255 165 0
-3 3 3 255 165 0
-1 1 2 255 165 0
-1 1 3 255 165 0
-1 2 3 255 165 0
-1 2 2 255 165 0
-1 2 2 255 165 0
-1 2 3 255 165 0
-1 3 3 255 165 0
-1 3 2 255 165 0
-1 3 2 255 165 0
-1 3 3 255 165 0
-1 4 3 255 165 0
-1 4 2 255 165 0
-3 1 3 255 165 0
-3 1 4 255 165 0
-3 2 4 255 165 0
-3 2 3 255 165 0
-8 -4 0 255 165 0
-8 -4 1 255 165 0
-8 -3 1 255 165 0
-8 -3 0 255 165 0
-8 -3 0 255 165 0
-8 -3 1 255 165 0
-8 -2 1 255 165 0
-8 -2 0 255 165 0
-8 -2 0 255 165 0
-8 -2 1 255 165 0
-8 -1 1 255 165 0
-8 -1 0 255 165 0
-8 -4 1 255 165 0
-8 -4 2 255 165 0
-8 -3 2 255 165 0
-8 -3 1 255 165 0
-8 -3 1 255 165 0
-8 -3 2 255 165 0
-8 -2 2 255 165 0
-8 -2 1 255 165 0
-8 -2 1 255 165 0
-8 -2 2 255 165 0
-8 -1 2 255 165 0
-8 -1 1 255 165 0
-8 -4 2 255 165 0
-8 -4 3 255 165 0
-8 -3 3 255 165 0
-8 -3 2 255 165 0
-8 -3 2 255 165 0
-8 -3 3 255 165 0
-8 -2 3 255 165 0
-8 -2 2 255 165 0
-8 -2 2 255 165 0
-8 -2 3 255 165 0
-8 -1 3 255 165 0
-8 -1 2 255 165 0
-8 -4 3 255 165 0
-8 -4 4 255 165 0
-8 -3 4 255 165 0
-8 -3 3 255 165 0
-8 -3 3 255 165 0
-8 -3 4 255 165 0
-8 -2 4 255 165 0
-8 -2 3 255 165 0
-8 -2 3 255 165 0
-8 -2 4 255 165 0
-8 -1 4 255 165 0
-8 -1 3 255 165 0
7 -6 14 0 0 0
7 -6 15 0 0 0
7 -5 15 0 0 0
7 -5 14 0 0 0
7 -7 14 0 0 0
7 -7 15 0 0 0
7 -6 15 0 0 0
7 -6 14 0 0 0
7 -7 12 0 0 0
7 -7 13 0 0 0
7 -6 13 0 0 0
7 -6 12 0 0 0
7 -6 12 0 0 0
7 -6 13 0 0 0
7 -5 13 0 0 0
7 -5 12 0 0 0
6 5 12 0 0 0
6 5 13 0 0 0
6 6 13 0 0 0
6 6 12 0 0 0
6 6 12 0 0 0
6 6 13 0 0 0
6 7 13 0 0 0
6 7 12 0 0 0
6 6 14 0 0 0
6 6 15 0 0 0
6 7 15 0 0 0
6 7 14 0 0 0
-2 2 21 255 165 0
-2 2 22 255 165 0
-2 3 22 255 165 0
-2 3 21 255 165 0
-2 3 21 255 165 0
-2 3 22 255 165 0
-2 4 22 255 165 0
-2 4 21 255 165 0
-2 3 22 255 165 0
-2 3 23 255 165 0
-2 4 23 255 165 0
-2 4 22 255 165 0
-2 4 21 255 165 0
-2 4 22 255 165 0
-2 5 22 255 165 0
-2 5 21 255 165 0
-2 4 22 255 165 0
-2 4 23 255 165 0
-2 5 23 255 165 0
-2 5 22 255 165 0
-3 5 22 255 165 0
-3 5 23 255 165 0
-3 6 23 255 165 0
-3 6 22 255 165 0
-1 -3 21 255 165 0
-1 -3 22 255 165 0
-1 -2 22 255 165 0
-1 -2 21 255 165 0
-1 -4 21 255 165 0
-1 -4 22 255 165 0
-1 -3 22 255 165 0
-1 -3 21 255 165 0
-1 -4 22 255 165 0
-1 -4 23 255 165 0
-1 -3 23 255 165 0
-1 -3 22 255 165 0
-1 -5 21 255 165 0
-1 -5 22 255 165 0
-1 -4 22 255 165 0
-1 -4 21 255 165 0
-1 -5 22 255 165 0
-1 -5 23 255 165 0
-1 -4 23 255 165 0
-1 -4 22 255 165 0
0 -6 22 255 165 0
0 -6 23 255 165 0
0 -5 23 255 165 0
0 -5 22 255 165 0
4 -5 9 255 165 0
4 -4 9 255 165 0
4 -4 10 255 165 0
4 -5 10 255 165 0
4 -6 9 255 165 0
4 -5 9 255 165 0
4 -5 10 255 165 0
4 -6 10 255 165 0
4 -5 8 255 165 0
4 -4 8 255 165 0
4 -4 9 255 165 0
4 -5 9 255 165 0
4 -6 8 255 165 0
4 -5 8 255 165 0
4 -5 9 255 165 0
4 -6 9 255 165 0
4 -5 7 255 165 0
4 -4 7 255 165 0
4 -4 8 255 165 0
4 -5 8 255 165 0
4 -6 7 255 165 0
4 -5 7 255 165 0
4 -5 8 255 165 0
4 -6 8 255 165 0
-1 5 9 255 165 0
-1 6 9 255 165 0
-1 6 10 255 165 0
-1 5 10 255 165 0
-2 -2 3 255 165 0
-2 -1 3 255 165 0
-2 -1 4 255 165 0
-2 -2 4 255 165 0
7 5 14 0 0 0
7 6 14 0 0 0
7 6 15 0 0 0
7 5 15 0 0 0
-2 -3 3 255 165 0
-2 -2 3 255 165 0
-2 -2 4 255 165 0
-2 -3 4 255 165 0
-2 -4 3 255 165 0
-2 -3 3 255 165 0
-2 -3 4 255 165 0
-2 -4 4 255 165 0
-4 4 7 255 165 0
-4 5 7 255 165 0
-4 5 8 255 165 0
-4 4 8 255 165 0
-4 5 7 255 165 0
-4 6 7 255 165 0
-4 6 8 255 165 0
-4 5 8 255 165 0
-9 -1 9 255 165 0
-9 0 9 255 165 0
-9 0 10 255 165 0
-9 -1 10 255 165 0
-9 -2 9 255 165 0
-9 -1 9 255 165 0
-9 -1 10 255 165 0
-9 -2 10 255 165 0
-9 -1 8 255 165 0
-9 0 8 255 165 0
-9 0 9 255 165 0
-9 -1 9 255 165 0
-9 -2 8 255 165 0
-9 -1 8 255 165 0
-9 -1 9 255 165 0
-9 -2 9 255 165 0
-9 -1 7 255 165 0
-9 0 7 255 165 0
-9 0 8 255 165 0
-9 -1 8 255 165 0
-9 -2 7 255 165 0
-9 -1 7 255 165 0
-9 -1 8 255 165 0
-9 -2 8 255 165 0
-1 5 8 255 165 0
-1 6 8 255 165 0
-1 6 9 255 165 0
-1 5 9 255 165 0
-1 4 8 255 165 0
-1 5 8 255 165 0
-1 5 9 255 165 0
-1 4 9 255 165 0
7 1 0 255 165 0
7 2 0 255 165 0
7 2 1 255 165 0
7 1 1 255 165 0
7 2 0 255 165 0
7 3 0 255 165 0
7 3 1 255 165 0
7 2 1 255 165 0
7 3 0 255 165 0
7 4 0 255 165 0
7 4 1 255 165 0
7 3 1 255 165 0
2 3 3 255 165 0
2 4 3 255 165 0
2 4 4 255 165 0
2 3 4 255 165 0
7 1 1 255 165 0
7 2 1 255 165 0
7 2 2 255 165 0
7 1 2 255 165 0
7 2 1 255 165 0
7 3 1 255 165 0
7 3 2 255 165 0
7 2 2 255 165 0
7 3 1 255 165 0
7 4 1 255 165 0
7 4 2 255 165 0
7 3 2 255 165 0
2 2 3 255 165 0
2 3 3 255 165 0
2 3 4 255 165 0
2 2 4 255 165 0
2 1 3 255 165 0
2 2 3 255 165 0
2 2 4 255 165 0
2 1 4 255 165 0
6 1 2 255 165 0
6 2 2 255 165 0
6 2 3 255 165 0
6 1 3 255 165 0
6 2 2 255 165 0
6 3 2 255 165 0
6 3 3 255 165 0
6 2 3 255 165 0
6 3 2 255 165 0
6 4 2 255 165 0
6 4 3 255 165 0
6 3 3 255 165 0
-6 -4 0 255 165 0
-6 -3 0 255 165 0
-6 -3 1 255 165 0
-6 -4 1 255 165 0
-6 -3 0 255 165 0
-6 -2 0 255 165 0
-6 -2 1 255 165 0
-6 -3 1 255 165 0
-6 -2 0 255 165 0
-6 -1 0 255 165 0
-6 -1 1 255 165 0
-6 -2 1 255 165 0
-4 -4 1 255 165 0
-4 -3 1 255 165 0
-4 -3 2 255 165 0
-4 -4 2 255 165 0
-4 -3 1 255 165 0
-4 -2 1 255 165 0
-4 -2 2 255 165 0
-4 -3 2 255 165 0
-4 -2 1 255 165 0
-4 -1 1 255 165 0
-4 -1 2 255 165 0
-4 -2 2 255 165 0
-2 -4 2 255 165 0
-2 -3 2 255 165 0
-2 -3 3 255 165 0
-2 -4 3 255 165 0
-2 -3 2 255 165 0
-2 -2 2 255 165 0
-2 -2 3 255 165 0
-2 -3 3 255 165 0
-2 -2 2 255 165 0
-2 -1 2 255 165 0
-2 -1 3 255 165 0
-2 -2 3 255 165 0
8 -6 14 0 0 0
8 -5 14 0 0 0
8 -5 15 0 0 0
8 -6 15 0 0 0
8 -7 14 0 0 0
8 -6 14 0 0 0
8 -6 15 0 0 0
8 -7 15 0 0 0
8 -7 12 0 0 0
8 -6 12 0 0 0
8 -6 13 0 0 0
8 -7 13 0 0 0
8 -6 12 0 0 0
8 -5 12 0 0 0
8 -5 13 0 0 0
8 -6 13 0 0 0
3 -6 22 255 165 0
3 -5 22 255 165 0
3 -5 23 255 165 0
3 -6 23 255 165 0
7 5 12 0 0 0
7 6 12 0 0 0
7 6 13 0 0 0
7 5 13 0 0 0
7 6 12 0 0 0
7 7 12 0 0 0
7 7 13 0 0 0
7 6 13 0 0 0
7 6 14 0 0 0
7 7 14 0 0 0
7 7 15 0 0 0
7 6 15 0 0 0
-1 4 9 255 165 0
-1 5 9 255 165 0
-1 5 10 255 165 0
-1 4 10 255 165 0
1 2 21 255 165 0
1 3 21 255 165 0
1 3 22 255 165 0
1 2 22 255 165 0
1 3 21 255 165 0
1 4 21 255 165 0
1 4 22 255 165 0
1 3 22 255 165 0
1 3 22 255 165 0
1 4 22 255 165 0
1 4 23 255 165 0
1 3 23 255 165 0
1 4 21 255 165 0
1 5 21 255 165 0
1 5 22 255 165 0
1 4 22 255 165 0
1 4 22 255 165 0
1 5 22 255 165 0
1 5 23 255 165 0
1 4 23 255 165 0
0 5 22 255 165 0
0 6 22 255 165 0
0 6 23 255 165 0
0 5 23 255 165 0
2 -4 21 255 165 0
2 -3 21 255 165 0
2 -3 22 255 165 0
2 -4 22 255 165 0
2 -4 22 255 165 0
2 -3 22 255 165 0
2 -3 23 255 165 0
2 -4 23 255 165 0
2 -5 21 255 165 0
2 -4 21 255 165 0
2 -4 22 255 165 0
2 -5 22 255 165 0
2 -3 21 255 165 0
2 -2 21 255 165 0
2 -2 22 255 165 0
2 -3 22 255 165 0
2 -5 22 255 165 0
2 -4 22 255 165 0
2 -4 23 255 165 0
2 -5 23 255 165 0
2 -6 7 255 165 0
3 -6 7 255 165 0
3 -6 8 255 165 0
2 -6 8 255 165 0
3 -6 9 255 165 0
4 -6 9 255 165 0
4 -6 10 255 165 0
3 -6 10 255 165 0
2 -6 9 255 165 0
3 -6 9 255 165 0
3 -6 10 255 165 0
2 -6 10 255 165 0
3 -6 8 255 165 0
4 -6 8 255 165 0
4 -6 9 255 165 0
3 -6 9 255 165 0
2 -6 8 255 165 0
3 -6 8 255 165 0
3 -6 9 255 165 0
2 -6 9 255 165 0
1 -6 8 255 165 0
2 -6 8 255 165 0
2 -6 9 255 165 0
1 -6 9 255 165 0
0 -6 8 255 165 0
1 -6 8 255 165 0
1 -6 9 255 165 0
0 -6 9 255 165 0
1 -6 7 255 165 0
2 -6 7 255 165 0
2 -6 8 255 165 0
1 -6 8 255 165 0
-1 -6 8 255 165 0
0 -6 8 255 165 0
0 -6 9 255 165 0
-1 -6 9 255 165 0
0 -6 7 255 165 0
1 -6 7 255 165 0
1 -6 8 255 165 0
0 -6 8 255 165 0
3 -6 7 255 165 0
4 -6 7 255 165 0
4 -6 8 255 165 0
3 -6 8 255 165 0
-1 -6 7 255 165 0
0 -6 7 255 165 0
0 -6 8 255 165 0
-1 -6 8 255 165 0
6 5 14 0 0 0
7 5 14 0 0 0
7 5 15 0 0 0
6 5 15 0 0 0
-3 -4 3 255 165 0
-2 -4 3 255 165 0
-2 -4 4 255 165 0
-3 -4 4 255 165 0
-4 -4 3 255 165 0
-3 -4 3 255 165 0
-3 -4 4 255 165 0
-4 -4 4 255 165 0
-6 4 7 255 165 0
-5 4 7 255 165 0
-5 4 8 255 165 0
-6 4 8 255 165 0
-5 4 7 255 165 0
-4 4 7 255 165 0
-4 4 8 255 165 0
-5 4 8 255 165 0
-6 4 8 255 165 0
-5 4 8 255 165 0
-5 4 9 255 165 0
-6 4 9 255 165 0
-5 4 8 255 165 0
-4 4 8 255 165 0
-4 4 9 255 165 0
-5 4 9 255 165 0
-10 -2 9 255 165 0
-9 -2 9 255 165 0
-9 -2 10 255 165 0
-10 -2 10 255 165 0
-10 -2 8 255 165 0
-9 -2 8 255 165 0
-9 -2 9 255 165 0
-10 -2 9 255 165 0
-10 -2 7 255 165 0
-9 -2 7 255 165 0
-9 -2 8 255 165 0
-10 -2 8 255 165 0
-3 4 9 255 165 0
-2 4 9 255 165 0
-2 4 10 255 165 0
-3 4 10 255 165 0
-4 4 9 255 165 0
-3 4 9 255 165 0
-3 4 10 255 165 0
-4 4 10 255 165 0
-5 4 9 255 165 0
-4 4 9 255 165 0
-4 4 10 255 165 0
-5 4 10 255 165 0
-6 4 9 255 165 0
-5 4 9 255 165 0
-5 4 10 255 165 0
-6 4 10 255 165 0
-2 4 8 255 165 0
-1 4 8 255 165 0
-1 4 9 255 165 0
-2 4 9 255 165 0
-3 4 8 255 165 0
-2 4 8 255 165 0
-2 4 9 255 165 0
-3 4 9 255 165 0
-4 4 8 255 165 0
-3 4 8 255 165 0
-3 4 9 255 165 0
-4 4 9 255 165 0
1 1 0 255 165 0
2 1 0 255 165 0
2 1 1 255 165 0
1 1 1 255 165 0
2 1 0 255 165 0
3 1 0 255 165 0
3 1 1 255 165 0
2 1 1 255 165 0
3 1 0 255 165 0
4 1 0 255 165 0
4 1 1 255 165 0
3 1 1 255 165 0
4 1 0 255 165 0
5 1 0 255 165 0
5 1 1 255 165 0
4 1 1 255 165 0
5 1 0 255 165 0
6 1 0 255 165 0
6 1 1 255 165 0
5 1 1 255 165 0
6 1 0 255 165 0
7 1 0 255 165 0
7 1 1 255 165 0
6 1 1 255 165 0
0 1 1 255 165 0
1 1 1 255 165 0
1 1 2 255 165 0
0 1 2 255 165 0
1 1 1 255 165 0
2 1 1 255 165 0
2 1 2 255 165 0
1 1 2 255 165 0
2 1 1 255 165 0
3 1 1 255 165 0
3 1 2 255 165 0
2 1 2 255 165 0
3 1 1 255 165 0
4 1 1 255 165 0
4 1 2 255 165 0
3 1 2 255 165 0
4 1 1 255 165 0
5 1 1 255 165 0
5 1 2 255 165 0
4 1 2 255 165 0
5 1 1 255 165 0
6 1 1 255 165 0
6 1 2 255 165 0
5 1 2 255 165 0
6 1 1 255 165 0
7 1 1 255 165 0
7 1 2 255 165 0
6 1 2 255 165 0
1 1 3 255 165 0
2 1 3 255 165 0
2 1 4 255 165 0
1 1 4 255 165 0
0 1 3 255 165 0
1 1 3 255 165 0
1 1 4 255 165 0
0 1 4 255 165 0
-1 1 2 255 165 0
0 1 2 255 165 0
0 1 3 255 165 0
-1 1 3 255 165 0
0 1 2 255 165 0
1 1 2 255 165 0
1 1 3 255 165 0
0 1 3 255 165 0
1 1 2 255 165 0
2 1 2 255 165 0
2 1 3 255 165 0
1 1 3 255 165 0
2 1 2 255 165 0
3 1 2 255 165 0
3 1 3 255 165 0
2 1 3 255 165 0
3 1 2 255 165 0
4 1 2 255 165 0
4 1 3 255 165 0
3 1 3 255 165 0
4 1 2 255 165 0
5 1 2 255 165 0
5 1 3 255 165 0
4 1 3 255 165 0
5 1 2 255 165 0
6 1 2 255 165 0
6 1 3 255 165 0
5 1 3 255 165 0
-1 1 3 255 165 0
0 1 3 255 165 0
0 1 4 255 165 0
-1 1 4 255 165 0
-2 1 3 255 165 0
-1 1 3 255 165 0
-1 1 4 255 165 0
-2 1 4 255 165 0
-3 1 3 255 165 0
-2 1 3 255 165 0
-2 1 4 255 165 0
-3 1 4 255 165 0
-7 -4 0 255 165 0
-6 -4 0 255 165 0
-6 -4 1 255 165 0
-7 -4 1 255 165 0
-7 -4 1 255 165 0
-6 -4 1 255 165 0
-6 -4 2 255 165 0
-7 -4 2 255 165 0
-6 -4 1 255 165 0
-5 -4 1 255 165 0
-5 -4 2 255 165 0
-6 -4 2 255 165 0
-5 -4 1 255 165 0
-4 -4 1 255 165 0
-4 -4 2 255 165 0
-5 -4 2 255 165 0
-7 -4 2 255 165 0
-6 -4 2 255 165 0
-6 -4 3 255 165 0
-7 -4 3 255 165 0
-6 -4 2 255 165 0
-5 -4 2 255 165 0
-5 -4 3 255 165 0
-6 -4 3 255 165 0
-5 -4 2 255 165 0
-4 -4 2 255 165 0
-4 -4 3 255 165 0
-5 -4 3 255 165 0
-4 -4 2 255 165 0
-3 -4 2 255 165 0
-3 -4 3 255 165 0
-4 -4 3 255 165 0
-3 -4 2 255 165 0
-2 -4 2 255 165 0
-2 -4 3 255 165 0
-3 -4 3 255 165 0
-7 -4 3 255 165 0
-6 -4 3 255 165 0
-6 -4 4 255 165 0
-7 -4 4 255 165 0
-6 -4 3 255 165 0
-5 -4 3 255 165 0
-5 -4 4 255 165 0
-6 -4 4 255 165 0
-5 -4 3 255 165 0
-4 -4 3 255 165 0
-4 -4 4 255 165 0
-5 -4 4 255 165 0
-8 -4 0 255 165 0
-7 -4 0 255 165 0
-7 -4 1 255 165 0
-8 -4 1 255 165 0
-8 -4 1 255 165 0
-7 -4 1 255 165 0
-7 -4 2 255 165 0
-8 -4 2 255 165 0
-8 -4 2 255 165 0
-7 -4 2 255 165 0
-7 -4 3 255 165 0
-8 -4 3 255 165 0
-8 -4 3 255 165 0
-7 -4 3 255 165 0
-7 -4 4 255 165 0
-8 -4 4 255 165 0
7 -7 14 0 0 0
8 -7 14 0 0 0
8 -7 15 0 0 0
7 -7 15 0 0 0
7 -7 12 0 0 0
8 -7 12 0 0 0
8 -7 13 0 0 0
7 -7 13 0 0 0
2 -6 22 255 165 0
3 -6 22 255 165 0
3 -6 23 255 165 0
2 -6 23 255 165 0
6 5 12 0 0 0
7 5 12 0 0 0
7 5 13 0 0 0
6 5 13 0 0 0
-2 4 9 255 165 0
-1 4 9 255 165 0
-1 4 10 255 165 0
-2 4 10 255 165 0
-2 2 21 255 165 0
-1 2 21 255 165 0
-1 2 22 255 165 0
-2 2 22 255 165 0
-2 3 22 255 165 0
-1 3 22 255 165 0
-1 3 23 255 165 0
-2 3 23 255 165 0
-1 2 21 255 165 0
0 2 21 255 165 0
0 2 22 255 165 0
-1 2 22 255 165 0
-1 3 22 255 165 0
0 3 22 255 165 0
0 3 23 255 165 0
-1 3 23 255 165 0
0 2 21 255 165 0
1 2 21 255 165 0
1 2 22 255 165 0
0 2 22 255 165 0
0 3 22 255 165 0
1 3 22 255 165 0
1 3 23 255 165 0
0 3 23 255 165 0
-3 5 22 255 165 0
-2 5 22 255 165 0
-2 5 23 255 165 0
-3 5 23 255 165 0
0 -5 21 255 165 0
1 -5 21 255 165 0
1 -5 22 255 165 0
0 -5 22 255 165 0
1 -5 21 255 165 0
2 -5 21 255 165 0
2 -5 22 255 165 0
1 -5 22 255 165 0
-1 -5 21 255 165 0
0 -5 21 255 165 0
0 -5 22 255 165 0
-1 -5 22 255 165 0
-1 -5 22 255 165 0
0 -5 22 255 165 0
0 -5 23 255 165 0
-1 -5 23 255 165 0
0 -6 22 255 165 0
1 -6 22 255 165 0
1 -6 23 255 165 0
0 -6 23 255 165 0
1 -6 22 255 165 0
2 -6 22 255 165 0
2 -6 23 255 165 0
1 -6 23 255 165 0
3 -4 9 255 165 0
3 -4 10 255 165 0
4 -4 10 255 165 0
4 -4 9 255 165 0
2 -4 9 255 165 0
2 -4 10 255 165 0
3 -4 10 255 165 0
3 -4 9 255 165 0
3 -4 8 255 165 0
3 -4 9 255 165 0
4 -4 9 255 165 0
4 -4 8 255 165 0
2 -4 8 255 165 0
2 -4 9 255 165 0
3 -4 9 255 165 0
3 -4 8 255 165 0
1 -4 8 255 165 0
1 -4 9 255 165 0
2 -4 9 255 165 0
2 -4 8 255 165 0
0 -4 8 255 165 0
0 -4 9 255 165 0
1 -4 9 255 165 0
1 -4 8 255 165 0
-1 -4 8 255 165 0
-1 -4 9 255 165 0
0 -4 9 255 165 0
0 -4 8 255 165 0
3 -4 7 255 165 0
3 -4 8 255 165 0
4 -4 8 255 165 0
4 -4 7 255 165 0
2 -4 7 255 165 0
2 -4 8 255 165 0
3 -4 8 255 165 0
3 -4 7 255 165 0
1 -4 7 255 165 0
1 -4 8 255 165 0
2 -4 8 255 165 0
2 -4 7 255 165 0
0 -4 7 255 165 0
0 -4 8 255 165 0
1 -4 8 255 165 0
1 -4 7 255 165 0
-1 -4 7 255 165 0
-1 -4 8 255 165 0
0 -4 8 255 165 0
0 -4 7 255 165 0
-2 6 9 255 165 0
-2 6 10 255 165 0
-1 6 10 255 165 0
-1 6 9 255 165 0
-3 6 9 255 165 0
-3 6 10 255 165 0
-2 6 10 255 165 0
-2 6 9 255 165 0
-4 6 9 255 165 0
-4 6 10 255 165 0
-3 6 10 255 165 0
-3 6 9 255 165 0
-5 6 9 255 165 0
-5 6 10 255 165 0
-4 6 10 255 165 0
-4 6 9 255 165 0
-3 -1 3 255 165 0
-3 -1 4 255 165 0
-2 -1 4 255 165 0
-2 -1 3 255 165 0
-4 -1 3 255 165 0
-4 -1 4 255 165 0
-3 -1 4 255 165 0
-3 -1 3 255 165 0
-6 6 9 255 165 0
-6 6 10 255 165 0
-5 6 10 255 165 0
-5 6 9 255 165 0
-5 -1 3 255 165 0
-5 -1 4 255 165 0
-4 -1 4 255 165 0
-4 -1 3 255 165 0
-6 -1 3 255 165 0
-6 -1 4 255 165 0
-5 -1 4 255 165 0
-5 -1 3 255 165 0
-7 -1 3 255 165 0
-7 -1 4 255 165 0
-6 -1 4 255 165 0
-6 -1 3 255 165 0
-6 6 7 255 165 0
-6 6 8 255 165 0
-5 6 8 255 165 0
-5 6 7 255 165 0
-5 6 7 255 165 0
-5 6 8 255 165 0
-4 6 8 255 165 0
-4 6 7 255 165 0
-10 0 9 255 165 0
-10 0 10 255 165 0
-9 0 10 255 165 0
-9 0 9 255 165 0
-10 0 8 255 165 0
-10 0 9 255 165 0
-9 0 9 255 165 0
-9 0 8 255 165 0
-10 0 7 255 165 0
-10 0 8 255 165 0
-9 0 8 255 165 0
-9 0 7 255 165 0
-2 6 8 255 165 0
-2 6 9 255 165 0
-1 6 9 255 165 0
-1 6 8 255 165 0
-3 6 8 255 165 0
-3 6 9 255 165 0
-2 6 9 255 165 0
-2 6 8 255 165 0
-4 6 8 255 165 0
-4 6 9 255 165 0
-3 6 9 255 165 0
-3 6 8 255 165 0
-5 6 8 255 165 0
-5 6 9 255 165 0
-4 6 9 255 165 0
-4 6 8 255 165 0
-6 6 8 255 165 0
-6 6 9 255 165 0
-5 6 9 255 165 0
-5 6 8 255 165 0
1 4 0 255 165 0
1 4 1 255 165 0
2 4 1 255 165 0
2 4 0 255 165 0
2 4 0 255 165 0
2 4 1 255 165 0
3 4 1 255 165 0
3 4 0 255 165 0
3 4 0 255 165 0
3 4 1 255 165 0
4 4 1 255 165 0
4 4 0 255 165 0
4 4 0 255 165 0
4 4 1 255 165 0
5 4 1 255 165 0
5 4 0 255 165 0
5 4 0 255 165 0
5 4 1 255 165 0
6 4 1 255 165 0
6 4 0 255 165 0
6 4 0 255 165 0
6 4 1 255 165 0
7 4 1 255 165 0
7 4 0 255 165 0
1 4 3 255 165 0
1 4 4 255 165 0
2 4 4 255 165 0
2 4 3 255 165 0
0 4 3 255 165 0
0 4 4 255 165 0
1 4 4 255 165 0
1 4 3 255 165 0
-1 4 3 255 165 0
-1 4 4 255 165 0
0 4 4 255 165 0
0 4 3 255 165 0
0 4 1 255 165 0
0 4 2 255 165 0
1 4 2 255 165 0
1 4 1 255 165 0
1 4 1 255 165 0
1 4 2 255 165 0
2 4 2 255 165 0
2 4 1 255 165 0
2 4 1 255 165 0
2 4 2 255 165 0
3 4 2 255 165 0
3 4 1 255 165 0
3 4 1 255 165 0
3 4 2 255 165 0
4 4 2 255 165 0
4 4 1 255 165 0
4 4 1 255 165 0
4 4 2 255 165 0
5 4 2 255 165 0
5 4 1 255 165 0
5 4 1 255 165 0
5 4 2 255 165 0
6 4 2 255 165 0
6 4 1 255 165 0
6 4 1 255 165 0
6 4 2 255 165 0
7 4 2 255 165 0
7 4 1 255 165 0
-2 4 3 255 165 0
-2 4 4 255 165 0
-1 4 4 255 165 0
-1 4 3 255 165 0
-3 4 3 255 165 0
-3 4 4 255 165 0
-2 4 4 255 165 0
-2 4 3 255 165 0
-1 4 2 255 165 0
-1 4 3 255 165 0
0 4 3 255 165 0
0 4 2 255 165 0
0 4 2 255 165 0
0 4 3 255 165 0
1 4 3 255 165 0
1 4 2 255 165 0
1 4 2 255 165 0
1 4 3 255 165 0
2 4 3 255 165 0
2 4 2 255 165 0
2 4 2 255 165 0
2 4 3 255 165 0
3 4 3 255 165 0
3 4 2 255 165 0
3 4 2 255 165 0
3 4 3 255 165 0
4 4 3 255 165 0
4 4 2 255 165 0
4 4 2 255 165 0
4 4 3 255 165 0
5 4 3 255 165 0
5 4 2 255 165 0
5 4 2 255 165 0
5 4 3 255 165 0
6 4 3 255 165 0
6 4 2 255 165 0
-7 -1 0 255 165 0
-7 -1 1 255 165 0
-6 -1 1 255 165 0
-6 -1 0 255 165 0
-7 -1 1 255 165 0
-7 -1 2 255 165 0
-6 -1 2 255 165 0
-6 -1 1 255 165 0
-6 -1 1 255 165 0
-6 -1 2 255 165 0
-5 -1 2 255 165 0
-5 -1 1 255 165 0
-5 -1 1 255 165 0
-5 -1 2 255 165 0
-4 -1 2 255 165 0
-4 -1 1 255 165 0
-7 -1 2 255 165 0
-7 -1 3 255 165 0
-6 -1 3 255 165 0
-6 -1 2 255 165 0
-6 -1 2 255 165 0
-6 -1 3 255 165 0
-5 -1 3 255 165 0
-5 -1 2 255 165 0
-5 -1 2 255 165 0
-5 -1 3 255 165 0
-4 -1 3 255 165 0
-4 -1 2 255 165 0
-4 -1 2 255 165 0
-4 -1 3 255 165 0
-3 -1 3 255 165 0
-3 -1 2 255 165 0
-3 -1 2 255 165 0
-3 -1 3 255 165 0
-2 -1 3 255 165 0
-2 -1 2 255 165 0
-8 -1 0 255 165 0
-8 -1 1 255 165 0
-7 -1 1 255 165 0
-7 -1 0 255 165 0
-8 -1 1 255 165 0
-8 -1 2 255 165 0
-7 -1 2 255 165 0
-7 -1 1 255 165 0
-8 -1 2 255 165 0
-8 -1 3 255 165 0
-7 -1 3 255 165 0
-7 -1 2 255 165 0
-8 -1 3 255 165 0
-8 -1 4 255 165 0
-7 -1 4 255 165 0
-7 -1 3 255 165 0
7 -5 14 0 0 0
7 -5 15 0 0 0
8 -5 15 0 0 0
8 -5 14 0 0 0
7 -5 12 0 0 0
7 -5 13 0 0 0
8 -5 13 0 0 0
8 -5 12 0 0 0
2 -5 22 255 165 0
2 -5 23 255 165 0
3 -5 23 255 165 0
3 -5 22 255 165 0
6 7 12 0 0 0
6 7 13 0 0 0
7 7 13 0 0 0
7 7 12 0 0 0
6 7 14 0 0 0
6 7 15 0 0 0
7 7 15 0 0 0
7 7 14 0 0 0
-2 5 21 255 165 0
-2 5 22 255 165 0
-1 5 22 255 165 0
-1 5 21 255 165 0
-1 5 21 255 165 0
-1 5 22 255 165 0
0 5 22 255 165 0
0 5 21 255 165 0
0 5 21 255 165 0
0 5 22 255 165 0
1 5 22 255 165 0
1 5 21 255 165 0
0 5 22 255 165 0
0 5 23 255 165 0
1 5 23 255 165 0
1 5 22 255 165 0
-1 6 22 255 165 0
-1 6 23 255 165 0
0 6 23 255 165 0
0 6 22 255 165 0
-2 6 22 255 165 0
-2 6 23 255 165 0
-1 6 23 255 165 0
-1 6 22 255 165 0
-3 6 22 255 165 0
-3 6 23 255 165 0
-2 6 23 255 165 0
-2 6 22 255 165 0
0 -3 22 255 165 0
0 -3 23 255 165 0
1 -3 23 255 165 0
1 -3 22 255 165 0
0 -2 21 255 165 0
0 -2 22 255 165 0
1 -2 22 255 165 0
1 -2 21 255 165 0
1 -3 22 255 165 0
1 -3 23 255 165 0
2 -3 23 255 165 0
2 -3 22 255 165 0
1 -2 21 255 165 0
1 -2 22 255 165 0
2 -2 22 255 165 0
2 -2 21 255 165 0
-1 -2 21 255 165 0
-1 -2 22 255 165 0
0 -2 22 255 165 0
0 -2 21 255 165 0
-1 -3 22 255 165 0
-1 -3 23 255 165 0
0 -3 23 255 165 0
0 -3 22 255 165 0
2 -6 7 255 165 0
2 -5 7 255 165 0
3 -5 7 255 165 0
3 -6 7 255 165 0
1 -6 7 255 165 0
1 -5 7 255 165 0
2 -5 7 255 165 0
2 -6 7 255 165 0
0 -6 7 255 165 0
0 -5 7 255 165 0
1 -5 7 255 165 0
1 -6 7 255 165 0
3 -5 7 255 165 0
3 -4 7 255 165 0
4 -4 7 255 165 0
4 -5 7 255 165 0
2 -5 7 255 165 0
2 -4 7 255 165 0
3 -4 7 255 165 0
3 -5 7 255 165 0
1 -5 7 255 165 0
1 -4 7 255 165 0
2 -4 7 255 165 0
2 -5 7 255 165 0
0 -5 7 255 165 0
0 -4 7 255 165 0
1 -4 7 255 165 0
1 -5 7 255 165 0
-1 -5 7 255 165 0
-1 -4 7 255 165 0
0 -4 7 255 165 0
0 -5 7 255 165 0
3 -6 7 255 165 0
3 -5 7 255 165 0
4 -5 7 255 165 0
4 -6 7 255 165 0
-1 -6 7 255 165 0
-1 -5 7 255 165 0
0 -5 7 255 165 0
0 -6 7 255 165 0
6 5 14 0 0 0
6 6 14 0 0 0
7 6 14 0 0 0
7 5 14 0 0 0
-6 4 7 255 165 0
-6 5 7 255 165 0
-5 5 7 255 165 0
-5 4 7 255 165 0
-5 4 7 255 165 0
-5 5 7 255 165 0
-4 5 7 255 165 0
-4 4 7 255 165 0
-6 5 7 255 165 0
-6 6 7 255 165 0
-5 6 7 255 165 0
-5 5 7 255 165 0
-5 5 7 255 165 0
-5 6 7 255 165 0
-4 6 7 255 165 0
-4 5 7 255 165 0
-10 -1 7 255 165 0
-10 0 7 255 165 0
-9 0 7 255 165 0
-9 -1 7 255 165 0
-10 -2 7 255 165 0
-10 -1 7 255 165 0
-9 -1 7 255 165 0
-9 -2 7 255 165 0
-2 5 8 255 165 0
-2 6 8 255 165 0
-1 6 8 255 165 0
-1 5 8 255 165 0
-3 5 8 255 165 0
-3 6 8 255 165 0
-2 6 8 255 165 0
-2 5 8 255 165 0
-4 5 8 255 165 0
-4 6 8 255 165 0
-3 6 8 255 165 0
-3 5 8 255 165 0
-2 4 8 255 165 0
-2 5 8 255 165 0
-1 5 8 255 165 0
-1 4 8 255 165 0
-3 4 8 255 165 0
-3 5 8 255 165 0
-2 5 8 255 165 0
-2 4 8 255 165 0
-4 4 8 255 165 0
-4 5 8 255 165 0
-3 5 8 255 165 0
-3 4 8 255 165 0
1 1 0 255 165 0
1 2 0 255 165 0
2 2 0 255 165 0
2 1 0 255 165 0
2 1 0 255 165 0
2 2 0 255 165 0
3 2 0 255 165 0
3 1 0 255 165 0
3 1 0 255 165 0
3 2 0 255 165 0
4 2 0 255 165 0
4 1 0 255 165 0
4 1 0 255 165 0
4 2 0 255 165 0
5 2 0 255 165 0
5 1 0 255 165 0
5 1 0 255 165 0
5 2 0 255 165 0
6 2 0 255 165 0
6 1 0 255 165 0
6 1 0 255 165 0
6 2 0 255 165 0
7 2 0 255 165 0
7 1 0 255 165 0
1 2 0 255 165 0
1 3 0 255 165 0
2 3 0 255 165 0
2 2 0 255 165 0
2 2 0 255 165 0
2 3 0 255 165 0
3 3 0 255 165 0
3 2 0 255 165 0
3 2 0 255 165 0
3 3 0 255 165 0
4 3 0 255 165 0
4 2 0 255 165 0
4 2 0 255 165 0
4 3 0 255 165 0
5 3 0 255 165 0
5 2 0 255 165 0
5 2 0 255 165 0
5 3 0 255 165 0
6 3 0 255 165 0
6 2 0 255 165 0
6 2 0 255 165 0
6 3 0 255 165 0
7 3 0 255 165 0
7 2 0 255 165 0
1 3 0 255 165 0
1 4 0 255 165 0
2 4 0 255 165 0
2 3 0 255 165 0
2 3 0 255 165 0
2 4 0 255 165 0
3 4 0 255 165 0
3 3 0 255 165 0
3 3 0 255 165 0
3 4 0 255 165 0
4 4 0 255 165 0
4 3 0 255 165 0
4 3 0 255 165 0
4 4 0 255 165 0
5 4 0 255 165 0
5 3 0 255 165 0
5 3 0 255 165 0
5 4 0 255 165 0
6 4 0 255 165 0
6 3 0 255 165 0
6 3 0 255 165 0
6 4 0 255 165 0
7 4 0 255 165 0
7 3 0 255 165 0
0 1 1 255 165 0
0 2 1 255 165 0
1 2 1 255 165 0
1 1 1 255 165 0
0 2 1 255 165 0
0 3 1 255 165 0
1 3 1 255 165 0
1 2 1 255 165 0
0 3 1 255 165 0
0 4 1 255 165 0
1 4 1 255 165 0
1 3 1 255 165 0
-2 3 3 255 165 0
-2 4 3 255 165 0
-1 4 3 255 165 0
-1 3 3 255 165 0
-3 3 3 255 165 0
-3 4 3 255 165 0
-2 4 3 255 165 0
-2 3 3 255 165 0
-2 2 3 255 165 0
-2 3 3 255 165 0
-1 3 3 255 165 0
-1 2 3 255 165 0
-3 2 3 255 165 0
-3 3 3 255 165 0
-2 3 3 255 165 0
-2 2 3 255 165 0
-1 1 2 255 165 0
-1 2 2 255 165 0
0 2 2 255 165 0
0 1 2 255 165 0
-1 2 2 255 165 0
-1 3 2 255 165 0
0 3 2 255 165 0
0 2 2 255 165 0
-1 3 2 255 165 0
-1 4 2 255 165 0
0 4 2 255 165 0
0 3 2 255 165 0
-2 1 3 255 165 0
-2 2 3 255 165 0
-1 2 3 255 165 0
-1 1 3 255 165 0
-3 1 3 255 165 0
-3 2 3 255 165 0
-2 2 3 255 165 0
-2 1 3 255 165 0
-7 -4 0 255 165 0
-7 -3 0 255 165 0
-6 -3 0 255 165 0
-6 -4 0 255 165 0
-7 -3 0 255 165 0
-7 -2 0 255 165 0
-6 -2 0 255 165 0
-6 -3 0 255 165 0
-7 -2 0 255 165 0
-7 -1 0 255 165 0
-6 -1 0 255 165 0
-6 -2 0 255 165 0
-6 -4 1 255 165 0
-6 -3 1 255 165 0
-5 -3 1 255 165 0
-5 -4 1 255 165 0
-5 -4 1 255 165 0
-5 -3 1 255 165 0
-4 -3 1 255 165 0
-4 -4 1 255 165 0
-6 -3 1 255 165 0
-6 -2 1 255 165 0
-5 -2 1 255 165 0
-5 -3 1 255 165 0
-5 -3 1 255 165 0
-5 -2 1 255 165 0
-4 -2 1 255 165 0
-4 -3 1 255 165 0
-6 -2 1 255 165 0
-6 -1 1 255 165 0
-5 -1 1 255 165 0
-5 -2 1 255 165 0
-5 -2 1 255 165 0
-5 -1 1 255 165 0
-4 -1 1 255 165 0
-4 -2 1 255 165 0
-4 -4 2 255 165 0
-4 -3 2 255 165 0
-3 -3 2 255 165 0
-3 -4 2 255 165 0
-3 -4 2 255 165 0
-3 -3 2 255 165 0
-2 -3 2 255 165 0
-2 -4 2 255 165 0
-4 -3 2 255 165 0
-4 -2 2 255 165 0
-3 -2 2 255 165 0
-3 -3 2 255 165 0
-3 -3 2 255 165 0
-3 -2 2 255 165 0
-2 -2 2 255 165 0
-2 -3 2 255 165 0
-4 -2 2 255 165 0
-4 -1 2 255 165 0
-3 -1 2 255 165 0
-3 -2 2 255 165 0
-3 -2 2 255 165 0
-3 -1 2 255 165 0
-2 -1 2 255 165 0
-2 -2 2 255 165 0
-8 -4 0 255 165 0
-8 -3 0 255 165 0
-7 -3 0 255 165 0
-7 -4 0 255 165 0
-8 -3 0 255 165 0
-8 -2 0 255 165 0
-7 -2 0 255 165 0
-7 -3 0 255 165 0
-8 -2 0 255 165 0
-8 -1 0 255 165 0
-7 -1 0 255 165 0
-7 -2 0 255 165 0
7 -6 14 0 0 0
7 -5 14 0 0 0
8 -5 14 0 0 0
8 -6 14 0 0 0
7 -7 14 0 0 0
7 -6 14 0 0 0
8 -6 14 0 0 0
8 -7 14 0 0 0
7 -7 12 0 0 0
7 -6 12 0 0 0
8 -6 12 0 0 0
8 -7 12 0 0 0
7 -6 12 0 0 0
7 -5 12 0 0 0
8 -5 12 0 0 0
8 -6 12 0 0 0
2 -6 22 255 165 0
2 -5 22 255 165 0
3 -5 22 255 165 0
3 -6 22 255 165 0
6 5 12 0 0 0
6 6 12 0 0 0
7 6 12 0 0 0
7 5 12 0 0 0
6 6 12 0 0 0
6 7 12 0 0 0
7 7 12 0 0 0
7 6 12 0 0 0
6 6 14 0 0 0
6 7 14 0 0 0
7 7 14 0 0 0
7 6 14 0 0 0
-2 2 21 255 165 0
-2 3 21 255 165 0
-1 3 21 255 165 0
-1 2 21 255 165 0
-2 3 21 255 165 0
-2 4 21 255 165 0
-1 4 21 255 165 0
-1 3 21 255 165 0
-2 4 21 255 165 0
-2 5 21 255 165 0
-1 5 21 255 165 0
-1 4 21 255 165 0
-1 2 21 255 165 0
-1 3 21 255 165 0
0 3 21 255 165 0
0 2 21 255 165 0
-1 3 21 255 165 0
-1 4 21 255 165 0
0 4 21 255 165 0
0 3 21 255 165 0
-1 4 21 255 165 0
-1 5 21 255 165 0
0 5 21 255 165 0
0 4 21 255 165 0
0 2 21 255 165 0
0 3 21 255 165 0
1 3 21 255 165 0
1 2 21 255 165 0
0 3 21 255 165 0
0 4 21 255 165 0
1 4 21 255 165 0
1 3 21 255 165 0
0 4 21 255 165 0
0 5 21 255 165 0
1 5 21 255 165 0
1 4 21 255 165 0
-1 5 22 255 165 0
-1 6 22 255 165 0
0 6 22 255 165 0
0 5 22 255 165 0
-2 5 22 255 165 0
-2 6 22 255 165 0
-1 6 22 255 165 0
-1 5 22 255 165 0
-3 5 22 255 165 0
-3 6 22 255 165 0
-2 6 22 255 165 0
-2 5 22 255 165 0
0 -4 21 255 165 0
0 -3 21 255 165 0
1 -3 21 255 165 0
1 -4 21 255 165 0
0 -5 21 255 165 0
0 -4 21 255 165 0
1 -4 21 255 165 0
1 -5 21 255 165 0
0 -3 21 255 165 0
0 -2 21 255 165 0
1 -2 21 255 165 0
1 -3 21 255 165 0
1 -4 21 255 165 0
1 -3 21 255 165 0
2 -3 21 255 165 0
2 -4 21 255 165 0
1 -5 21 255 165 0
1 -4 21 255 165 0
2 -4 21 255 165 0
2 -5 21 255 165 0
1 -3 21 255 165 0
1 -2 21 255 165 0
2 -2 21 255 165 0
2 -3 21 255 165 0
-1 -3 21 255 165 0
-1 -2 21 255 165 0
0 -2 21 255 165 0
0 -3 21 255 165 0
-1 -4 21 255 165 0
-1 -3 21 255 165 0
0 -3 21 255 165 0
0 -4 21 255 165 0
-1 -5 21 255 165 0
-1 -4 21 255 165 0
0 -4 21 255 165 0
0 -5 21 255 165 0
0 -6 22 255 165 0
0 -5 22 255 165 0
1 -5 22 255 165 0
1 -6 22 255 165 0
1 -6 22 255 165 0
1 -5 22 255 165 0
2 -5 22 255 165 0
2 -6 22 255 165 0
3 -5 10 255 165 0
4 -5 10 255 165 0
4 -4 10 255 165 0
3 -4 10 255 165 0
2 -5 10 255 165 0
3 -5 10 255 165 0
3 -4 10 255 165 0
2 -4 10 255 165 0
3 -6 10 255 165 0
4 -6 10 255 165 0
4 -5 10 255 165 0
3 -5 10 255 165 0
2 -6 10 255 165 0
3 -6 10 255 165 0
3 -5 10 255 165 0
2 -5 10 255 165 0
1 -5 9 255 165 0
2 -5 9 255 165 0
2 -4 9 255 165 0
1 -4 9 255 165 0
0 -5 9 255 165 0
1 -5 9 255 165 0
1 -4 9 255 165 0
0 -4 9 255 165 0
-1 -5 9 255 165 0
0 -5 9 255 165 0
0 -4 9 255 165 0
-1 -4 9 255 165 0
1 -6 9 255 165 0
2 -6 9 255 165 0
2 -5 9 255 165 0
1 -5 9 255 165 0
0 -6 9 255 165 0
1 -6 9 255 165 0
1 -5 9 255 165 0
0 -5 9 255 165 0
-1 -6 9 255 165 0
0 -6 9 255 165 0
0 -5 9 255 165 0
-1 -5 9 255 165 0
-2 5 10 255 165 0
-1 5 10 255 165 0
-1 6 10 255 165 0
-2 6 10 255 165 0
-3 5 10 255 165 0
-2 5 10 255 165 0
-2 6 10 255 165 0
-3 6 10 255 165 0
-4 5 10 255 165 0
-3 5 10 255 165 0
-3 6 10 255 165 0
-4 6 10 255 165 0
-5 5 10 255 165 0
-4 5 10 255 165 0
-4 6 10 255 165 0
-5 6 10 255 165 0
-3 -2 4 255 165 0
-2 -2 4 255 165 0
-2 -1 4 255 165 0
-3 -1 4 255 165 0
-4 -2 4 255 165 0
-3 -2 4 255 165 0
-3 -1 4 255 165 0
-4 -1 4 255 165 0
-6 5 10 255 165 0
-5 5 10 255 165 0
-5 6 10 255 165 0
-6 6 10 255 165 0
-5 -2 4 255 165 0
-4 -2 4 255 165 0
-4 -1 4 255 165 0
-5 -1 4 255 165 0
-6 -2 4 255 165 0
-5 -2 4 255 165 0
-5 -1 4 255 165 0
-6 -1 4 255 165 0
6 5 15 0 0 0
7 5 15 0 0 0
7 6 15 0 0 0
6 6 15 0 0 0
-7 -2 4 255 165 0
-6 -2 4 255 165 0
-6 -1 4 255 165 0
-7 -1 4 255 165 0
-3 -3 4 255 165 0
-2 -3 4 255 165 0
-2 -2 4 255 165 0
-3 -2 4 255 165 0
-4 -3 4 255 165 0
-3 -3 4 255 165 0
-3 -2 4 255 165 0
-4 -2 4 255 165 0
-5 -3 4 255 165 0
-4 -3 4 255 165 0
-4 -2 4 255 165 0
-5 -2 4 255 165 0
-6 -3 4 255 165 0
-5 -3 4 255 165 0
-5 -2 4 255 165 0
-6 -2 4 255 165 0
-7 -3 4 255 165 0
-6 -3 4 255 165 0
-6 -2 4 255 165 0
-7 -2 4 255 165 0
-3 -4 4 255 165 0
-2 -4 4 255 165 0
-2 -3 4 255 165 0
-3 -3 4 255 165 0
-4 -4 4 255 165 0
-3 -4 4 255 165 0
-3 -3 4 255 165 0
-4 -3 4 255 165 0
-10 -1 10 255 165 0
-9 -1 10 255 165 0
-9 0 10 255 165 0
-10 0 10 255 165 0
-10 -2 10 255 165 0
-9 -2 10 255 165 0
-9 -1 10 255 165 0
-10 -1 10 255 165 0
-3 4 10 255 165 0
-2 4 10 255 165 0
-2 5 10 255 165 0
-3 5 10 255 165 0
-4 4 10 255 165 0
-3 4 10 255 165 0
-3 5 10 255 165 0
-4 5 10 255 165 0
-5 4 10 255 165 0
-4 4 10 255 165 0
-4 5 10 255 165 0
-5 5 10 255 165 0
-6 4 10 255 165 0
-5 4 10 255 165 0
-5 5 10 255 165 0
-6 5 10 255 165 0
1 3 4 255 165 0
2 3 4 255 165 0
2 4 4 255 165 0
1 4 4 255 165 0
0 3 4 255 165 0
1 3 4 255 165 0
1 4 4 255 165 0
0 4 4 255 165 0
-1 3 4 255 165 0
0 3 4 255 165 0
0 4 4 255 165 0
-1 4 4 255 165 0
6 1 2 255 165 0
7 1 2 255 165 0
7 2 2 255 165 0
6 2 2 255 165 0
6 2 2 255 165 0
7 2 2 255 165 0
7 3 2 255 165 0
6 3 2 255 165 0
6 3 2 255 165 0
7 3 2 255 165 0
7 4 2 255 165 0
6 4 2 255 165 0
-2 3 4 255 165 0
-1 3 4 255 165 0
-1 4 4 255 165 0
-2 4 4 255 165 0
-3 3 4 255 165 0
-2 3 4 255 165 0
-2 4 4 255 165 0
-3 4 4 255 165 0
1 2 4 255 165 0
2 2 4 255 165 0
2 3 4 255 165 0
1 3 4 255 165 0
0 2 4 255 165 0
1 2 4 255 165 0
1 3 4 255 165 0
0 3 4 255 165 0
-1 2 4 255 165 0
0 2 4 255 165 0
0 3 4 255 165 0
-1 3 4 255 165 0
-2 2 4 255 165 0
-1 2 4 255 165 0
-1 3 4 255 165 0
-2 3 4 255 165 0
-3 2 4 255 165 0
-2 2 4 255 165 0
-2 3 4 255 165 0
-3 3 4 255 165 0
1 1 4 255 165 0
2 1 4 255 165 0
2 2 4 255 165 0
1 2 4 255 165 0
0 1 4 255 165 0
1 1 4 255 165 0
1 2 4 255 165 0
0 2 4 255 165 0
2 1 3 255 165 0
3 1 3 255 165 0
3 2 3 255 165 0
2 2 3 255 165 0
3 1 3 255 165 0
4 1 3 255 165 0
4 2 3 255 165 0
3 2 3 255 165 0
4 1 3 255 165 0
5 1 3 255 165 0
5 2 3 255 165 0
4 2 3 255 165 0
5 1 3 255 165 0
6 1 3 255 165 0
6 2 3 255 165 0
5 2 3 255 165 0
2 2 3 255 165 0
3 2 3 255 165 0
3 3 3 255 165 0
2 3 3 255 165 0
3 2 3 255 165 0
4 2 3 255 165 0
4 3 3 255 165 0
3 3 3 255 165 0
4 2 3 255 165 0
5 2 3 255 165 0
5 3 3 255 165 0
4 3 3 255 165 0
5 2 3 255 165 0
6 2 3 255 165 0
6 3 3 255 165 0
5 3 3 255 165 0
2 3 3 255 165 0
3 3 3 255 165 0
3 4 3 255 165 0
2 4 3 255 165 0
3 3 3 255 165 0
4 3 3 255 165 0
4 4 3 255 165 0
3 4 3 255 165 0
4 3 3 255 165 0
5 3 3 255 165 0
5 4 3 255 165 0
4 4 3 255 165 0
5 3 3 255 165 0
6 3 3 255 165 0
6 4 3 255 165 0
5 4 3 255 165 0
-1 1 4 255 165 0
0 1 4 255 165 0
0 2 4 255 165 0
-1 2 4 255 165 0
-2 1 4 255 165 0
-1 1 4 255 165 0
-1 2 4 255 165 0
-2 2 4 255 165 0
-3 1 4 255 165 0
-2 1 4 255 165 0
-2 2 4 255 165 0
-3 2 4 255 165 0
-7 -4 4 255 165 0
-6 -4 4 255 165 0
-6 -3 4 255 165 0
-7 -3 4 255 165 0
-6 -4 4 255 165 0
-5 -4 4 255 165 0
-5 -3 4 255 165 0
-6 -3 4 255 165 0
-5 -4 4 255 165 0
-4 -4 4 255 165 0
-4 -3 4 255 165 0
-5 -3 4 255 165 0
-8 -4 4 255 165 0
-7 -4 4 255 165 0
-7 -3 4 255 165 0
-8 -3 4 255 165 0
-8 -3 4 255 165 0
-7 -3 4 255 165 0
-7 -2 4 255 165 0
-8 -2 4 255 165 0
-8 -2 4 255 165 0
-7 -2 4 255 165 0
-7 -1 4 255 165 0
-8 -1 4 255 165 0
7 -6 15 0 0 0
8 -6 15 0 0 0
8 -5 15 0 0 0
7 -5 15 0 0 0
7 -7 15 0 0 0
8 -7 15 0 0 0
8 -6 15 0 0 0
7 -6 15 0 0 0
7 -7 13 0 0 0
8 -7 13 0 0 0
8 -6 13 0 0 0
7 -6 13 0 0 0
7 -6 13 0 0 0
8 -6 13 0 0 0
8 -5 13 0 0 0
7 -5 13 0 0 0
2 -6 23 255 165 0
3 -6 23 255 165 0
3 -5 23 255 165 0
2 -5 23 255 165 0
6 5 13 0 0 0
7 5 13 0 0 0
7 6 13 0 0 0
6 6 13 0 0 0
6 6 13 0 0 0
7 6 13 0 0 0
7 7 13 0 0 0
6 7 13 0 0 0
6 6 15 0 0 0
7 6 15 0 0 0
7 7 15 0 0 0
6 7 15 0 0 0
-2 4 10 255 165 0
-1 4 10 255 165 0
-1 5 10 255 165 0
-2 5 10 255 165 0
-2 2 22 255 165 0
-1 2 22 255 165 0
-1 3 22 255 165 0
-2 3 22 255 165 0
-2 3 23 255 165 0
-1 3 23 255 165 0
-1 4 23 255 165 0
-2 4 23 255 165 0
-2 4 23 255 165 0
-1 4 23 255 165 0
-1 5 23 255 165 0
-2 5 23 255 165 0
-1 2 22 255 165 0
0 2 22 255 165 0
0 3 22 255 165 0
-1 3 22 255 165 0
-1 3 23 255 165 0
0 3 23 255 165 0
0 4 23 255 165 0
-1 4 23 255 165 0
-1 4 23 255 165 0
0 4 23 255 165 0
0 5 23 255 165 0
-1 5 23 255 165 0
0 2 22 255 165 0
1 2 22 255 165 0
1 3 22 255 165 0
0 3 22 255 165 0
0 3 23 255 165 0
1 3 23 255 165 0
1 4 23 255 165 0
0 4 23 255 165 0
0 4 23 255 165 0
1 4 23 255 165 0
1 5 23 255 165 0
0 5 23 255 165 0
-1 5 23 255 165 0
0 5 23 255 165 0
0 6 23 255 165 0
-1 6 23 255 165 0
-2 5 23 255 165 0
-1 5 23 255 165 0
-1 6 23 255 165 0
-2 6 23 255 165 0
-3 5 23 255 165 0
-2 5 23 255 165 0
-2 6 23 255 165 0
-3 6 23 255 165 0
0 -4 23 255 165 0
1 -4 23 255 165 0
1 -3 23 255 165 0
0 -3 23 255 165 0
0 -5 23 255 165 0
1 -5 23 255 165 0
1 -4 23 255 165 0
0 -4 23 255 165 0
0 -3 22 255 165 0
1 -3 22 255 165 0
1 -2 22 255 165 0
0 -2 22 255 165 0
1 -4 23 255 165 0
2 -4 23 255 165 0
2 -3 23 255 165 0
1 -3 23 255 165 0
1 -3 22 255 165 0
2 -3 22 255 165 0
2 -2 22 255 165 0
1 -2 22 255 165 0
1 -5 23 255 165 0
2 -5 23 255 165 0
2 -4 23 255 165 0
1 -4 23 255 165 0
-1 -3 22 255 165 0
0 -3 22 255 165 0
0 -2 22 255 165 0
-1 -2 22 255 165 0
-1 -4 23 255 165 0
0 -4 23 255 165 0
0 -3 23 255 165 0
-1 -3 23 255 165 0
-1 -5 23 255 165 0
0 -5 23 255 165 0
0 -4 23 255 165 0
-1 -4 23 255 165 0
0 -6 23 255 165 0
1 -6 23 255 165 0
1 -5 23 255 165 0
0 -5 23 255 165 0
1 -6 23 255 165 0
2 -6 23 255 165 0
2 -5 23 255 165 0
1 -5 23 255 165 0
4 0 1 2 3
4 4 5 6 7
4 8 9 10 11
4 12 13 14 15
4 16 17 18 19
4 20 21 22 23
4 24 25 26 27
4 28 29 30 31
4 32 33 34 35
4 36 37 38 39
4 40 41 42 43
4 44 45 46 47
4 48 49 50 51
4 52 53 54 55
4 56 57 58 59
4 60 61 62 63
4 64 65 66 67
4 68 69 70 71
4 72 73 74 75
4 76 77 78 79
4 80 81 82 83
4 84 85 86 87
4 88 89 90 91
4 92 93 94 95
4 96 97 98 99
4 100 101 102 103
4 104 105 106 107
4 108 109 110 111
4 112 113 114 115
4 116 117 118 119
4 120 121 122 123
4 124 125 126 127
4 128 129 130 131
4 132 133 134 135
4 136 137 138 139
4 140 141 142 143
4 144 145 146 147
4 148 149 150 151
4 152 153 154 155
4 156 157 158 159
4 160 161 162 163
4 164 165 166 167
4 168 169 170 171
4 172 173 174 175
4 176 177 178 179
4 180 181 182 183
4 184 185 186 187
4 188 189 190 191
4 192 193 194 195
4 196 197 198 199
4 200 201 202 203
4 204 205 206 207
4 208 209 210 211
4 212 213 214 215
4 216 217 218 219
4 220 221 222 223
4 224 225 226 227
4 228 229 230 231
4 232 233 234 235
4 236 237 238 239
4 240 241 242 243
4 244 245 246 247
4 248 249 250 251
4 252 253 254 255
4 256 257 258 259
4 260 261 262 263
4 264 265 266 267
4 268 269 270 271
4 272 273 274 275
4 276 277 278 279
4 280 281 282 283
4 284 285 286 287
4 288 289 290 291
4 292 293 294 295
4 296 297 298 299
4 300 301 302 303
4 304 305 306 307
4 308 309 310 311
4 312 313 314 315
4 316 317 318 319
4 320 321 322 323
4 324 325 326 327
4 328 329 330 331
4 332 333 334 335
4 336 337 338 339
4 340 341 342 343
4 344 345 346 347
4 348 349 350 351
4 352 353 354 355
4 356 357 358 359
4 360 361 362 363
4 364 365 366 367
4 368 369 370 371
4 372 373 374 375
4 376 377 378 379
4 380 381 382 383
4 384 385 386 387
4 388 389 390 391
4 392 393 394 395
4 396 397 398 399
4 400 401 402 403
4 404 405 406 407
4 408 409 410 411
4 412 413 414 415
4 416 417 418 419
4 420 421 422 423
4 424 425 426 427
4 428 429 430 431
4 432 433 434 435
4 436 437 438 439
4 440 441 442 443
4 444 445 446 447
4 448 449 450 451
4 452 453 454 455
4 456 457 458 459
4 460 461 462 463
4 464 465 466 467
4 468 469 470 471
4 472 473 474 475
4 476 477 478 479
4 480 481 482 483
4 484 485 486 487
4 488 489 490 491
4 492 493 494 495
4 496 497 498 499
4 500 501 502 503
4 504 505 506 507
4 508 509 510 511
4 512 513 514 515
4 516 517 518 519
4 520 521 522 523
4 524 525 526 527
4 528 529 530 531
4 532 533 534 535
4 536 537 538 539
4 540 541 542 543
4 544 545 546 547
4 548 549 550 551
4 552 553 554 555
4 556 557 558 559
4 560 561 562 563
4 564 565 566 567
4 568 569 570 571
4 572 573 574 575
4 576 577 578 579
4 580 581 582 583
4 584 585 586 587
4 588 589 590 591
4 592 593 594 595
4 596 597 598 599
4 600 601 602 603
4 604 605 606 607
4 608 609 610 611
4 612 613 614 615
4 616 617 618 619
4 620 621 622 623
4 624 625 626 627
4 628 629 630 631
4 632 633 634 635
4 636 637 638 639
4 640 641 642 643
4 644 645 646 647
4 648 649 650 651
4 652 653 654 655
4 656 657 658 659
4 660 661 662 663
4 664 665 666 667
4 668 669 670 671
4 672 673 674 675
4 676 677 678 679
4 680 681 682 683
4 684 685 686 687
4 688 689 690 691
4 692 693 694 695
4 696 697 698 699
4 700 701 702 703
4 704 705 706 707
4 708 709 710 711
4 712 713 714 715
4 716 717 718 719
4 720 721 722 723
4 724 725 726 727
4 728 729 730 731
4 732 733 734 735
4 736 737 738 739
4 740 741 742 743
4 744 745 746 747
4 748 749 750 751
4 752 753 754 755
4 756 757 758 759
4 760 761 762 763
4 764 765 766 767
4 768 769 770 771
4 772 773 774 775
4 776 777 778 779
4 780 781 782 783
4 784 785 786 787
4 788 789 790 791
4 792 793 794 795
4 796 797 798 799
4 800 801 802 803
4 804 805 806 807
4 808 809 810 811
4 812 813 814 815
4 816 817 818 819
4 820 821 822 823
4 824 825 826 827
4 828 829 830 831
4 832 833 834 835
4 836 837 838 839
4 840 841 842 843
4 844 845 846 847
4 848 849 850 851
4 852 853 854 855
4 856 857 858 859
4 860 861 862 863
4 864 865 866 867
4 868 869 870 871
4 872 873 874 875
4 876 877 878 879
4 880 881 882 883
4 884 885 886 887
4 888 889 890 891
4 892 893 894 895
4 896 897 898 899
4 900 901 902 903
4 904 905 906 907
4 908 909 910 911
4 912 913 914 915
4 916 917 918 919
4 920 921 922 923
4 924 925 926 927
4 928 929 930 931
4 932 933 934 935
4 936 937 938 939
4 940 941 942 943
4 944 945 946 947
4 948 949 950 951
4 952 953 954 955
4 956 957 958 959
4 960 961 962 963
4 964 965 966 967
4 968 969 970 971
4 972 973 974 975
4 976 977 978 979
4 980 981 982 983
4 984 985 986 987
4 988 989 990 991
4 992 993 994 995
4 996 997 998 999
4 1000 1001 1002 1003
4 1004 1005 1006 1007
4 1008 1009 1010 1011
4 1012 1013 1014 1015
4 1016 1017 1018 1019
4 1020 1021 1022 1023
4 1024 1025 1026 1027
4 1028 1029 1030 1031
4 1032 1033 1034 1035
4 1036 1037 1038 1039
4 1040 1041 1042 1043
4 1044 1045 1046 1047
4 1048 1049 1050 1051
4 1052 1053 1054 1055
4 1056 1057 1058 1059
4 1060 1061 1062 1063
4 1064 1065 1066 1067
4 1068 1069 1070 1071
4 1072 1073 1074 1075
4 1076 1077 1078 1079
4 1080 1081 1082 1083
4 1084 1085 1086 1087
4 1088 1089 1090 1091
4 1092 1093 1094 1095
4 1096 1097 1098 1099
4 1100 1101 1102 1103
4 1104 1105 1106 1107
4 1108 1109 1110 1111
4 1112 1113 1114 1115
4 1116 1117 1118 1119
4 1120 1121 1122 1123
4 1124 1125 1126 1127
4 1128 1129 1130 1131
4 1132 1133 1134 1135
4 1136 1137 1138 1139
4 1140 1141 1142 1143
4 1144 1145 1146 1147
4 1148 1149 1150 1151
4 1152 1153 1154 1155
4 1156 1157 1158 1159
4 1160 1161 1162 1163
4 1164 1165 1166 1167
4 1168 1169 1170 1171
4 1172 1173 1174 1175
4 1176 1177 1178 1179
4 1180 1181 1182 1183
4 1184 1185 1186 1187
4 1188 1189 1190 1191
4 1192 1193 1194 1195
4 1196 1197 1198 1199
4 1200 1201 1202 1203
4 1204 1205 1206 1207
4 1208 1209 1210 1211
4 1212 1213 1214 1215
4 1216 1217 1218 1219
4 1220 1221 1222 1223
4 1224 1225 1226 1227
4 1228 1229 1230 1231
4 1232 1233 1234 1235
4 1236 1237 1238 1239
4 1240 1241 1242 1243
4 1244 1245 1246 1247
4 1248 1249 1250 1251
4 1252 1253 1254 1255
4 1256 1257 1258 1259
4 1260 1261 1262 1263
4 1264 1265 1266 1267
4 1268 1269 1270 1271
4 1272 1273 1274 1275
4 1276 1277 1278 1279
4 1280 1281 1282 1283
4 1284 1285 1286 1287
4 1288 1289 1290 1291
4 1292 1293 1294 1295
4 1296 1297 1298 1299
4 1300 1301 1302 1303
4 1304 1305 1306 1307
4 1308 1309 1310 1311
4 1312 1313 1314 1315
4 1316 1317 1318 1319
4 1320 1321 1322 1323
4 1324 1325 1326 1327
4 1328 1329 1330 1331
4 1332 1333 1334 1335
4 1336 1337 1338 1339
4 1340 1341 1342 1343
4 1344 1345 1346 1347
4 1348 1349 1350 1351
4 1352 1353 1354 1355
4 1356 1357 1358 1359
4 1360 1361 1362 1363
4 1364 1365 1366 1367
4 1368 1369 1370 1371
4 1372 1373 1374 1375
4 1376 1377 1378 1379
4 1380 1381 1382 1383
4 1384 1385 1386 1387
4 1388 1389 1390 1391
4 1392 1393 1394 1395
4 1396 1397 1398 1399
4 1400 1401 1402 1403
4 1404 1405 1406 1407
4 1408 1409 1410 1411
4 1412 1413 1414 1415
4 1416 1417 1418 1419
4 1420 1421 1422 1423
4 1424 1425 1426 1427
4 1428 1429 1430 1431
4 1432 1433 1434 1435
4 1436 1437 1438 1439
4 1440 1441 1442 1443
4 1444 1445 1446 1447
4 1448 1449 1450 1451
4 1452 1453 1454 1455
4 1456 1457 1458 1459
4 1460 1461 1462 1463
4 1464 1465 1466 1467
4 1468 1469 1470 1471
4 1472 1473 1474 1475
4 1476 1477 1478 1479
4 1480 1481 1482 1483
4 1484 1485 1486 1487
4 1488 1489 1490 1491
4 1492 1493 1494 1495
4 1496 1497 1498 1499
4 1500 1501 1502 1503
4 1504 1505 1506 1507
4 1508 1509 1510 1511
4 1512 1513 1514 1515
4 1516 1517 1518 1519
4 1520 1521 1522 1523
4 1524 1525 1526 1527
4 1528 1529 1530 1531
4 1532 1533 1534 1535
4 1536 1537 1538 1539
4 1540 1541 1542 1543
4 1544 1545 1546 1547
4 1548 1549 1550 1551
4 1552 1553 1554 1555
4 1556 1557 1558 1559
4 1560 1561 1562 1563
4 1564 1565 1566 1567
4 1568 1569 1570 1571
4 1572 1573 1574 1575
4 1576 1577 1578 1579
4 1580 1581 1582 1583
4 1584 1585 1586 1587
4 1588 1589 1590 1591
4 1592 1593 1594 1595
4 1596 1597 1598 1599
4 1600 1601 1602 1603
4 1604 1605 1606 1607
4 1608 1609 1610 1611
4 1612 1613 1614 1615
4 1616 1617 1618 1619
4 1620 1621 1622 1623
4 1624 1625 1626 1627
4 1628 1629 1630 1631
4 1632 1633 1634 1635
4 1636 1637 1638 1639
4 1640 1641 1642 1643
4 1644 1645 1646 1647
4 1648 1649 1650 1651
4 1652 1653 1654 1655
4 1656 1657 1658 1659
4 1660 1661 1662 1663
4 1664 1665 1666 1667
4 1668 1669 1670 1671
4 1672 1673 1674 1675
4 1676 1677 1678 1679
4 1680 1681 1682 1683
4 1684 1685 1686 1687
4 1688 1689 1690 1691
4 1692 1693 1694 1695
4 1696 1697 1698 1699
4 1700 1701 1702 1703
4 1704 1705 1706 1707
4 1708 1709 1710 1711
4 1712 1713 1714 1715
4 1716 1717 1718 1719
4 1720 1721 1722 1723
4 1724 1725 1726 1727
4 1728 1729 1730 1731
4 1732 1733 1734 1735
4 1736 1737 1738 1739
4 1740 1741 1742 1743
4 1744 1745 1746 1747
4 1748 1749 1750 1751
4 1752 1753 1754 1755
4 1756 1757 1758 1759
4 1760 1761 1762 1763
4 1764 1765 1766 1767
4 1768 1769 1770 1771
4 1772 1773 1774 1775
4 1776 1777 1778 1779
4 1780 1781 1782 1783
4 1784 1785 1786 1787
4 1788 1789 1790 1791
4 1792 1793 1794 1795
4 1796 1797 1798 1799
4 1800 1801 1802 1803
4 1804 1805 1806 1807
4 1808 1809 1810 1811
4 1812 1813 1814 1815
4 1816 1817 1818 1819
4 1820 1821 1822 1823
4 1824 1825 1826 1827
4 1828 1829 1830 1831
4 1832 1833 1834 1835
4 1836 1837 1838 1839
4 1840 1841 1842 1843
4 1844 1845 1846 1847
4 1848 1849 1850 1851
4 1852 1853 1854 1855
4 1856 1857 1858 1859
4 1860 1861 1862 1863
4 1864 1865 1866 1867
4 1868 1869 1870 1871
4 1872 1873 1874 1875
4 1876 1877 1878 1879
4 1880 1881 1882 1883
4 1884 1885 1886 1887
4 1888 1889 1890 1891
4 1892 1893 1894 1895
4 1896 1897 1898 1899
4 1900 1901 1902 1903
4 1904 1905 1906 1907
4 1908 1909 1910 1911
4 1912 1913 1914 1915
4 1916 1917 1918 1919
4 1920 1921 1922 1923
4 1924 1925 1926 1927
4 1928 1929 1930 1931
4 1932 1933 1934 1935
4 1936 1937 1938 1939
4 1940 1941 1942 1943
4 1944 1945 1946 1947
4 1948 1949 1950 1951
4 1952 1953 1954 1955
4 1956 1957 1958 1959
4 1960 1961 1962 1963
4 1964 1965 1966 1967
4 1968 1969 1970 1971
4 1972 1973 1974 1975
4 1976 1977 1978 1979
4 1980 1981 1982 1983
4 1984 1985 1986 1987
4 1988 1989 1990 1991
4 1992 1993 1994 1995
4 1996 1997 1998 1999
4 2000 2001 2002 2003
4 2004 2005 2006 2007
4 2008 2009 2010 2011
4 2012 2013 2014 2015
